<svg xmlns="http://www.w3.org/2000/svg" width="80.209" height="78.344" viewBox="0 0 80.209 78.344"><script xmlns="" id="eppiocemhmnlbhjplcgkofciiegomcon"/><script xmlns=""/><script xmlns=""/><defs><style>.a{fill:#404040;}</style></defs><g transform="translate(-1477.834 -3053)"><g transform="translate(1126.444 2505.59)"><path class="a" d="M422.34,571.068h-2.665V557.106a9.708,9.708,0,0,0-9.7-9.7H361.086a9.708,9.708,0,0,0-9.7,9.7v58.952a9.707,9.707,0,0,0,9.7,9.7H422.34A9.269,9.269,0,0,0,431.6,616.5V580.339A9.276,9.276,0,0,0,422.34,571.068Zm-61.254-19.905h48.893a5.95,5.95,0,0,1,5.943,5.943v2.022H355.143v-2.022A5.95,5.95,0,0,1,361.086,551.163Zm0,70.837a5.95,5.95,0,0,1-5.943-5.943V562.881h60.778v8.187h-5.955a9.277,9.277,0,0,0-9.211,8.325,9.459,9.459,0,0,0-.048.946V616.5a9.158,9.158,0,0,0,.111,1.356c.013.091.025.183.041.273a9.175,9.175,0,0,0,.31,1.247c.024.071.053.139.078.21a9.173,9.173,0,0,0,.462,1.082c.027.053.05.108.079.16a9.206,9.206,0,0,0,.669,1.067c.025.034.043.075.069.109Zm66.759-5.5a5.51,5.51,0,0,1-5.5,5.5H409.967a5.51,5.51,0,0,1-5.5-5.5V580.339a5.518,5.518,0,0,1,5.5-5.517H422.34a5.518,5.518,0,0,1,5.5,5.517Z" transform="translate(0 0)"/><path class="a" d="M358.176,588.291h36.651V573.719H358.176Zm2.5-12.069h31.647v9.567H360.678Z" transform="translate(1.704 6.606)"/><path class="a" d="M358.176,604h36.651V589.43H358.176Zm2.5-12.068h31.647V601.5H360.678Z" transform="translate(1.704 10.551)"/><circle class="a" cx="1.969" cy="1.969" r="1.969" transform="translate(361.132 553.262)"/><circle class="a" cx="1.969" cy="1.969" r="1.969" transform="translate(366.762 553.262)"/><circle class="a" cx="1.969" cy="1.969" r="1.969" transform="translate(372.392 553.262)"/></g></g></svg>