<svg xmlns="http://www.w3.org/2000/svg" width="30" height="30" viewBox="0 0 30 30"><circle cx="15" cy="15" r="15" fill="#ebebeb"/><g transform="translate(7.03 7.036)"><path d="M22.447,19.655c-.208-2.386-2.7-3.557-2.8-3.6a.529.529,0,0,0-.316-.042c-2.874.477-3.306,2.149-3.324,2.219a.538.538,0,0,0,.011.293c3.428,10.635,10.552,12.607,12.894,13.256.18.05.329.09.442.127a.521.521,0,0,0,.167.026.542.542,0,0,0,.225-.049,4.4,4.4,0,0,0,2.178-3.43.541.541,0,0,0-.052-.333,5.153,5.153,0,0,0-3.377-2.351.531.531,0,0,0-.48.114,7.256,7.256,0,0,1-2.306,1.439,10.241,10.241,0,0,1-4.888-4.967,5.822,5.822,0,0,1,1.487-2.281A.541.541,0,0,0,22.447,19.655Z" transform="translate(-15.989 -16)" fill="#404040"/></g></svg>