<svg xmlns="http://www.w3.org/2000/svg" width="84.466" height="78.42" viewBox="0 0 84.466 78.42"><path d="M96.737,627.331a39.21,39.21,0,1,1,38.679-45.674,2.384,2.384,0,1,1-4.7.78,34.441,34.441,0,1,0-4.649,23.756,2.384,2.384,0,1,1,4.056,2.507A38.994,38.994,0,0,1,96.737,627.331Z" transform="translate(-57.526 -548.911)"/><g transform="translate(65.701 28.835)"><path d="M107.71,574.049l12.078,14.692,6.686-17.805Z" transform="translate(-107.71 -570.936)"/></g><path d="M108.73,598.532l-15.195-11.47a5.1,5.1,0,0,0,.139-1.147,5.174,5.174,0,0,0-3.125-4.743V558.089a2.044,2.044,0,1,0-4.087,0v23.083a5.166,5.166,0,0,0,2.044,9.911,5.116,5.116,0,0,0,2.605-.729l15.157,11.441a2.044,2.044,0,1,0,2.463-3.263ZM88.505,588.389a2.474,2.474,0,1,1,2.474-2.474A2.474,2.474,0,0,1,88.505,588.389Z" transform="translate(-49.545 -546.705)"/></svg>