<svg xmlns="http://www.w3.org/2000/svg" width="74.331" height="95.497" viewBox="0 0 74.331 95.497"><g transform="translate(-5.423 -6.968)"><g transform="translate(38.154 69.505)"><path d="M568.25,593.621l-1.655.727c-.022.009-2.307.986-7.98.986-.878,0-1.858-.086-2.893-.175-3.014-.264-6.129-.536-8.006,1.185a4.868,4.868,0,0,0-1.435,3.767v14.025h2.36V600.111a2.617,2.617,0,0,1,.669-2.028c1.111-1.018,3.818-.782,6.207-.574,1.041.092,2.116.186,3.1.186a32.682,32.682,0,0,0,7.285-.687v21.1H553.709a12.658,12.658,0,0,0-6.263,1.341,12.555,12.555,0,0,0-6.236-1.341H529.019v-21.1a32.673,32.673,0,0,0,7.285.687c.722,0,1.417-.026,2.089-.051a12.481,12.481,0,0,1,4.861.405l.834-2.208a14.421,14.421,0,0,0-5.784-.556c-.643.025-1.309.049-2,.049-5.674,0-7.958-.977-7.971-.982l-1.674-.773V625H543.1a7.621,7.621,0,0,1,3.705,1.11l.653.43.652-.429A7.65,7.65,0,0,1,551.82,625h16.439V595.424Zm-2.35,29.018H551.82a9.8,9.8,0,0,0-4.361,1.129,9.8,9.8,0,0,0-4.36-1.129h-14.08v-2.957H541.21a10.945,10.945,0,0,1,5.867,1.354l.4.223.391-.238a11.061,11.061,0,0,1,5.842-1.339H565.9Z" transform="translate(-526.659 -593.579)"/><rect width="9.774" height="0.787" transform="translate(5.94 8.754)"/><rect width="9.774" height="0.787" transform="translate(5.94 12.406)"/><rect width="9.774" height="0.787" transform="translate(5.94 16.058)"/><rect width="9.774" height="0.787" transform="translate(5.94 19.709)"/><rect width="9.774" height="0.787" transform="translate(26.359 8.754)"/><rect width="9.774" height="0.787" transform="translate(26.359 12.406)"/><rect width="9.774" height="0.787" transform="translate(26.359 16.058)"/><rect width="9.774" height="0.787" transform="translate(26.359 19.709)"/></g><path d="M519.786,588.968a20.179,20.179,0,0,0,16.314,8.326h1.45c9.815,0,16.379,2.406,21.952,8.044a1.937,1.937,0,0,0,3.292-1.067c2.483-16.313,1.224-28.648-3.734-36.762v-1.851a20.241,20.241,0,0,0-20.218-20.218H536.1a20.242,20.242,0,0,0-20.218,20.218v11.419c0,.067.009.133.01.2,0,.084-.01.165-.01.251v5.8a28.179,28.179,0,0,0,4.405,15.132,36.32,36.32,0,0,0-18.824,31.675v1.624h28.971v-3.248H504.752a33.073,33.073,0,0,1,17.438-27.388,23.209,23.209,0,0,0,7.136,6.459l1.643-2.8A24.589,24.589,0,0,1,519.786,588.968Zm16.314,5.078a16.982,16.982,0,0,1-16.96-16.773,21.12,21.12,0,0,1,1.306-7.407c4.675,1.463,10.676.348,16.515-.743,8.073-1.51,15.694-2.918,18.851,2.224v5.73a16.988,16.988,0,0,1-16.97,16.969Zm-14.168-27.125c3.023-4.664,8.382-7.259,15.54-7.259,6.58,0,11.833,1.9,15.672,5.612-4.659-1.594-10.783-.464-16.779.657C531.155,566.9,525.8,567.9,521.933,566.921Zm38,34.378a28.178,28.178,0,0,0-12.112-6.136,20.222,20.222,0,0,0,11.237-18.086v-1.485C561.019,582.2,561.321,590.786,559.935,601.3ZM536.1,548.688h2.742a16.981,16.981,0,0,1,16.764,14.464c-4.473-4.456-10.55-6.738-18.134-6.738-8.365,0-14.734,3.194-18.319,8.8A16.979,16.979,0,0,1,536.1,548.688Z" transform="translate(-496.041 -538.472)"/></g></svg>