<svg xmlns="http://www.w3.org/2000/svg" width="95.571" height="74.759" viewBox="0 0 95.571 74.759"><defs><style>.a{fill:#404040;}</style></defs><g transform="translate(-1473.087 -2633)"><g transform="translate(1335.87 2084.089)"><g transform="translate(137.217 548.911)"><path class="a" d="M183.923,622.96a18.453,18.453,0,0,0-9.109-2.727h-37.6V548.911l2.755,1.271c.068.029,5.538,2.369,18.967,2.369,1.592,0,3.122-.057,4.6-.112,1.507-.056,2.954-.111,4.346-.111a25.482,25.482,0,0,1,8.184,1.083l-1.374,3.637a22.213,22.213,0,0,0-6.8-.838c-1.306,0-2.672.05-4.1.1-1.39.052-3.122.118-4.849.118a75.694,75.694,0,0,1-16.84-1.584l-1-.231v61.732h33.715a22.152,22.152,0,0,1,9.813,2.546l.376.195.375-.195a22.152,22.152,0,0,1,9.813-2.546h33.715V554.619l-1,.231a75.7,75.7,0,0,1-16.84,1.584c-2.275,0-4.763-.218-7.167-.429-2.439-.212-4.931-.429-7.256-.429-3.895,0-6.395.629-7.869,1.98-1.231,1.126-1.83,2.874-1.83,5.341v31.954h-3.882V562.9c0-3.566,1.038-6.326,3.087-8.2,2.24-2.052,5.564-3.007,10.46-3.007,2.456,0,5.079.228,7.616.449,2.445.214,4.744.416,6.841.416,13.169,0,18.732-2.27,18.962-2.366l2.743-1.207.017,2.972v68.283h-37.6a18.447,18.447,0,0,0-9.121,2.736l-1.07.7Z" transform="translate(-137.217 -548.911)"/></g><g transform="translate(139.974 608.566)"><path class="a" d="M184.115,605.409a26.284,26.284,0,0,0-14.106-3.267H139.583V600.1h30.426a28.674,28.674,0,0,1,14.2,3.043l.385.2.379-.206c4.909-2.674,9.955-3.034,14.243-3.034h30.426v2.044H199.213c-2.824,0-8.7,0-14.073,3.248l-.508.308Z" transform="translate(-139.583 -600.098)"/></g><g transform="translate(150.28 568.09)"><rect class="a" width="22.838" height="1.838"/></g><g transform="translate(150.28 576.623)"><rect class="a" width="22.838" height="1.838"/></g><g transform="translate(150.28 585.155)"><rect class="a" width="22.838" height="1.838"/></g><g transform="translate(150.28 593.686)"><rect class="a" width="22.838" height="1.838"/></g><g transform="translate(197.991 568.09)"><rect class="a" width="22.838" height="1.838"/></g><g transform="translate(197.991 576.623)"><rect class="a" width="22.838" height="1.838"/></g><g transform="translate(197.991 585.155)"><rect class="a" width="22.838" height="1.838"/></g><g transform="translate(197.991 593.686)"><rect class="a" width="22.838" height="1.838"/></g></g></g></svg>