<svg xmlns="http://www.w3.org/2000/svg" width="67.978" height="101.139" viewBox="0 0 67.978 101.139"><g transform="translate(-12.649 4.341)"><g transform="translate(12.649 -4.341)"><g transform="translate(0 4.909)"><path d="M661.569,596.792a34.15,34.15,0,0,0-6.329-4.58l-.179-.1.076-.182a15.912,15.912,0,0,0,1.271-6.2l-.062-12.434.185-.1a8.358,8.358,0,0,0,1.6-1.125,7.187,7.187,0,0,0,2.366-5.284,7.5,7.5,0,0,0-4.579-6.691l-.122.008-.018-.2c-.566-5.836-5.99-10.407-12.347-10.407H631.492c-6.333,0-11.636,4.368-12.336,10.162l-.017.139-.141.052a8.241,8.241,0,0,0-2.783,1.652,7.185,7.185,0,0,0-2.365,5.283,7.543,7.543,0,0,0,5.067,6.924l.158.058v11.964a15.761,15.761,0,0,0,1.2,6.02l.076.183-.183.1c-10.407,5.7-16.621,15.752-16.621,26.9v10.548A1.587,1.587,0,0,0,605.191,631h11.223v-3.031h-9.577v-9.033c0-9.963,5.51-18.994,14.741-24.161l.214-.12.135.2s.395.545.5.68c.14.183.284.364.525.658l.227.267c.154.178.316.351.477.521l.332.35c.181.181.367.352.557.526l.311.289c.242.213.493.418.745.615l.176.143c.318.245.645.479.983.706l.251.159c.253.165.508.326.773.481l.378.208c.227.125.454.249.689.368l.434.205c.221.106.444.208.673.306l.469.19c.223.089.448.173.674.254l.49.166q.344.11.69.209c.167.048.333.1.5.138.237.061.473.115.812.19.135.028.269.058.4.084.248.048.5.089.876.146l.359.052c.28.037.563.062.843.086l.409.036c.421.026.843.041,1.267.041s.849-.014,1.27-.039l.49-.044c.253-.022.505-.044.759-.074l.559-.083c.223-.034.445-.067.667-.11l.507-.1c.234-.05.465-.1.7-.159l.508-.137q.336-.095.668-.2c.168-.054.335-.111.5-.168.217-.075.431-.156.644-.237l.49-.195c.21-.089.419-.183.626-.279l.469-.221c.2-.1.388-.2.617-.325,0,0,.329-.177.437-.237.2-.115.386-.233.641-.4l.371-.231q.481-.319.944-.671l.428-.347c.161-.129.323-.258.483-.395l.494-.455c.123-.114.244-.227.364-.345.1-.1.386-.4.386-.4.141-.148.283-.3.419-.45s.246-.288.367-.435.259-.316.385-.48c.113-.148.224-.3.333-.452l.319-.445.214.125a30.8,30.8,0,0,1,5.437,4,27.036,27.036,0,0,1,8.988,20v9.033h-8.947V631h10.592a1.586,1.586,0,0,0,1.645-1.516V618.936A29.925,29.925,0,0,0,661.569,596.792Zm-38.994-37.66a9.045,9.045,0,0,1,8.916-6.6h11.937a9.019,9.019,0,0,1,8.912,6.644l.066.283-29.9-.04ZM652.2,590.566a13.076,13.076,0,0,1-.7,1.487,15.465,15.465,0,0,1-13.753,7.846,16.706,16.706,0,0,1-2.333-.17,15.354,15.354,0,0,1-11.5-7.812,13.844,13.844,0,0,1-.629-1.352l-.463-1.16.893.927.553.542c.482.463.9.831,1.305,1.155a19.914,19.914,0,0,0,24.218.1c.419-.326.84-.694,1.329-1.159l.319-.311s.273-.261.331-.323l.889-.933Zm.92-11.582a13.746,13.746,0,0,1-5.451,10.826,16.407,16.407,0,0,1-19.947-.083,13.728,13.728,0,0,1-5.354-10.744v-4.724h30.017c.157,0,.312-.005.468-.013l.267-.013Zm.249-7.849a5.3,5.3,0,0,1-.984.093h-30.46c-.1-.01-.189-.016-.4-.026a3.183,3.183,0,0,1-.489-.059,4.547,4.547,0,0,1-3.894-4.355,4.27,4.27,0,0,1,1.4-3.14,4.947,4.947,0,0,1,2.4-1.195l.026-.006,32.655.053a4.517,4.517,0,0,1,3.58,4.288,4.254,4.254,0,0,1-1.395,3.133,5.024,5.024,0,0,1-1.649,1A5.191,5.191,0,0,1,653.367,571.134Z" transform="translate(-603.544 -549.498)"/></g><g transform="translate(27.578)"><path d="M652.116,590.186l-23.309-.016v-4.706h5.237v2.141h18.072a3.415,3.415,0,0,0,3.541-3.263v-5.324a3.416,3.416,0,0,0-3.541-3.265h-1.388l-.13-13.746c0-7.577-6.679-13.732-14.888-13.732H623.24v-2.581h12.47c9.754,0,17.689,7.313,17.689,16.3l.106,11.319a5.984,5.984,0,0,1,4.953,5.7v5.324A6.116,6.116,0,0,1,652.116,590.186Z" transform="translate(-623.24 -545.694)"/></g><g transform="translate(5.237)"><path d="M618.7,590.186h-5.074a6.115,6.115,0,0,1-6.341-5.844v-5.324a5.984,5.984,0,0,1,4.952-5.7l.105-11.331c0-8.977,7.935-16.29,17.688-16.29v2.581c-8.208,0-14.888,6.155-14.888,13.721l-.127,13.758h-1.389a3.416,3.416,0,0,0-3.541,3.265v5.324a3.415,3.415,0,0,0,3.541,3.263H618.7Z" transform="translate(-607.284 -545.694)"/></g><g transform="translate(11.589 65.751)"><g transform="translate(42.179 15.719)"><path d="M645,608.83h-3.051v11.061l3.051-.883Z" transform="translate(-641.945 -608.83)"/></g><g transform="translate(0 15.719)"><path d="M611.821,608.83v10.178l3.051.883V608.83Z" transform="translate(-611.821 -608.83)"/></g><g transform="translate(0)"><path d="M634.435,603.193l-22.614-6.544v28.844l22.614,6.543,22.616-6.543V596.649Zm-1.525,25.456-18.039-5.22V600.479l18.039,5.22v22.95Zm3.051,0V605.7L654,600.479v22.949Z" transform="translate(-611.821 -596.649)"/></g></g><g transform="translate(14.29 64.069)"><path d="M633.453,605.669l-19.7-5.805L615.478,598l1.89-2.654,17.554,7.953Zm-17.271-6.443,16.617,4.894.169-.271-15.108-6.844-1.289,1.8Z" transform="translate(-613.75 -595.345)"/><g transform="translate(18.639)"><path d="M628.529,605.669l-1.467-2.372,17.553-7.953L646.506,598l1.728,1.865Zm.487-1.82.168.271,16.617-4.894-.441-.484-1.238-1.737Z" transform="translate(-627.062 -595.345)"/></g></g></g></g></svg>