<svg xmlns="http://www.w3.org/2000/svg" width="114.86" height="89.905" viewBox="0 0 114.86 89.905"><defs><style>.a{fill:#404040;}</style></defs><g transform="translate(-351.413 -3041)"><g transform="translate(99.123 2494.338)"><path class="a" d="M296.8,632.505v-1.484H255.152a31.428,31.428,0,0,1,16.149-26.09,25.4,25.4,0,0,0,7.538,6.607l.308.2.121.045a47.083,47.083,0,0,0,17.6,5.48l.126.017.014-.131c.1-.934.219-1.786.367-2.6l.025-.133-.133-.018c-10.617-1.325-16.44-4.576-19.455-7.072a27.145,27.145,0,0,1-9.079-15.5,19.888,19.888,0,0,0,16.7,9.458l.125,0c6.2,0,10.972,1.1,15.018,3.449l.111.064.061-.116c.419-.806.854-1.574,1.293-2.283l.072-.114-.116-.067a26.912,26.912,0,0,0-7.881-2.977,20.481,20.481,0,0,0,11.242-18.313v-.718a48.943,48.943,0,0,1,1.725,15.564l-.008.311.219-.214c.88-.855,1.73-1.6,2.648-2.394-.043-8.457-1.592-15.292-4.584-20.245v-.52a19.877,19.877,0,1,0-39.743,0v8.216c0,.158.01.312.021.467l.015.294-.015.361c-.011.2-.021.4-.021.6v5.493a27.143,27.143,0,0,0,4.108,14.365A34.664,34.664,0,0,0,252.29,632.47v1.45h45.155l-.19-.214A1.816,1.816,0,0,1,296.8,632.505ZM285.492,555.25a17.148,17.148,0,0,1,16.654,13.8c-4.13-4.187-9.73-6.309-16.654-6.309-7.629,0-13.63,3.011-16.961,8.5A17.2,17.2,0,0,1,285.492,555.25Zm14.837,16.029a14.674,14.674,0,0,0-5.42-.889,58.045,58.045,0,0,0-10.424,1.363,55.8,55.8,0,0,1-9.909,1.319,13.557,13.557,0,0,1-3.58-.417c2.847-4.588,7.854-7.013,14.5-7.013C291.741,565.64,296.729,567.536,300.329,571.278Zm-30.625,4a15.52,15.52,0,0,0,4.882.686A57.908,57.908,0,0,0,285,574.6a56.27,56.27,0,0,1,9.862-1.323c3.833,0,6.275,1.117,7.668,3.451v4.191a17.028,17.028,0,1,1-34.048.755A20.142,20.142,0,0,1,269.7,575.282Z" transform="translate(0 2.621)"/><path class="a" d="M344.053,598.831a34.2,34.2,0,0,0-6.264-5.052l-.177-.112.075-.2a19.329,19.329,0,0,0,1.258-6.835l-.061-13.717.182-.112a8.305,8.305,0,0,0-.608-14.452l-.121.009-.019-.216a12.489,12.489,0,0,0-12.22-11.481H314.284a12.391,12.391,0,0,0-12.209,11.209l-.017.155-.141.055a8.08,8.08,0,0,0-2.754,1.822,8.363,8.363,0,0,0,2.675,13.467l.157.064v13.2a19.141,19.141,0,0,0,1.186,6.64l.073.2-.18.111a34.412,34.412,0,0,0-16.451,29.674v11.635a1.653,1.653,0,0,0,1.628,1.673h64.025a1.653,1.653,0,0,0,1.628-1.673V623.26A34.8,34.8,0,0,0,344.053,598.831Zm-38.595-41.542a9.14,9.14,0,0,1,8.825-7.282H326.1a9.126,9.126,0,0,1,8.822,7.328l.065.312-29.592-.044Zm-5.38,8.442a4.968,4.968,0,0,1,1.384-3.462,4.733,4.733,0,0,1,2.377-1.319l.026-.006,32.321.057a4.876,4.876,0,0,1,3.544,4.73,4.95,4.95,0,0,1-1.382,3.457,4.9,4.9,0,0,1-1.631,1.1,4.739,4.739,0,0,1-.783.242,4.831,4.831,0,0,1-.974.1l-30.149,0c-.094-.011-.186-.016-.395-.027a3.042,3.042,0,0,1-.485-.065A4.865,4.865,0,0,1,300.079,565.731Zm30.214,25.4a14.932,14.932,0,0,1-19.743-.09,15.809,15.809,0,0,1-5.3-11.851v-5.213h29.71c.154,0,.309,0,.463-.014l.263-.013v5.24A15.806,15.806,0,0,1,330.293,591.129Zm4.941-.451-.456,1.285a15.418,15.418,0,0,1-.69,1.641,15.094,15.094,0,0,1-13.612,8.654,14.71,14.71,0,0,1-2.309-.189,15.287,15.287,0,0,1-11.383-8.617,15.928,15.928,0,0,1-.622-1.492l-.459-1.28.884,1.023.547.6c.477.511.887.915,1.292,1.274a18.128,18.128,0,0,0,23.97.107c.413-.36.83-.766,1.314-1.277l.317-.344s.27-.288.327-.356Zm15.413,42.544H289.879V623.26a31.137,31.137,0,0,1,14.592-26.653l.211-.132.133.219s.392.6.492.752c.139.2.281.4.52.724l.223.295c.154.2.315.387.474.577l.328.384c.177.2.363.389.55.581l.309.319c.24.235.488.461.737.68l.173.157c.316.272.639.529.973.779l.249.177c.251.181.5.359.765.529l.374.229c.224.138.449.275.682.406l.428.228c.22.117.441.228.667.336l.466.211c.22.1.442.191.667.279l.485.184c.227.083.455.158.683.232.165.053.33.1.5.151.234.067.468.128.8.209.133.033.266.065.4.092.247.053.5.1.869.161l.353.058c.277.04.557.067.836.094l.4.04c.416.03.833.047,1.254.047s.838-.017,1.256-.044l.486-.048c.251-.023.5-.047.751-.081l.553-.09c.22-.039.441-.074.66-.121l.5-.114c.231-.055.46-.112.69-.176l.5-.151c.222-.068.442-.142.661-.218.168-.061.333-.122.5-.185.213-.083.427-.172.638-.263l.485-.215c.208-.1.414-.2.618-.307l.466-.243c.194-.107.384-.221.611-.359,0,0,.326-.193.432-.262.193-.125.381-.258.635-.436l.367-.255q.476-.352.934-.742l.423-.381c.161-.142.322-.286.478-.437l.491-.5c.121-.125.241-.249.359-.378.1-.114.384-.446.384-.446.14-.164.28-.329.414-.5s.242-.316.362-.478.258-.35.381-.531c.114-.162.223-.33.331-.5l.316-.493.212.138a31.033,31.033,0,0,1,5.381,4.407,31.437,31.437,0,0,1,8.9,22.064Z" transform="translate(13.247 0)"/></g></g></svg>