<svg xmlns="http://www.w3.org/2000/svg" width="101.71" height="79.444" viewBox="0 0 101.71 79.444"><script xmlns="" id="eppiocemhmnlbhjplcgkofciiegomcon"/><script xmlns=""/><script xmlns=""/>
  <g id="Group_586" data-name="Group 586" transform="translate(-1009.013 -628.164)">
    <path id="Path_396" data-name="Path 396" d="M1059.868,637.407l-50.855-9.243v70.2l50.855,9.242,50.854-9.242v-70.2Zm-2.6,65.335-43.929-7.984V633.343l43.929,7.985Zm49.135-7.984-43.929,7.984V641.328l43.929-7.985Z" transform="translate(0 0)" fill="#404040"/>
    <path id="Path_397" data-name="Path 397" d="M1054.051,655.126a36.51,36.51,0,0,1-.216-3.952,8,8,0,0,0-1.013,3.282,13.15,13.15,0,0,0,.14,1.572l.792,6.037a19.715,19.715,0,0,1,.187,2.582,13.754,13.754,0,0,1-.187,1.7l.311.094a13,13,0,0,0,.84-3.889,19.456,19.456,0,0,0-.193-2.318Z" transform="translate(19.316 10.145)" fill="#404040"/>
    <path id="Path_398" data-name="Path 398" d="M1051.893,650.718a6.192,6.192,0,0,1,1.533.28,6.173,6.173,0,0,0,1.517.279,4.263,4.263,0,0,0,3.282-1.447l-.186-.186a6.12,6.12,0,0,1-1.929.467,8.552,8.552,0,0,1-1.929-.327,8.585,8.585,0,0,0-1.93-.327q-.825,0-1.665,1.432l.218.17A2.341,2.341,0,0,1,1051.893,650.718Z" transform="translate(18.33 9.388)" fill="#404040"/>
    <path id="Path_399" data-name="Path 399" d="M1062.45,649.457h-.89l-5.16,21.406h.876Z" transform="translate(20.894 9.388)" fill="#404040"/>
    <path id="Path_400" data-name="Path 400" d="M1065.244,662.149a12.234,12.234,0,0,0,3.134-.356,15.952,15.952,0,0,0,3.176-1.2q2.094-1.137,2.942-1.628.644-.357,1.013-.548c.173-.092.488-.256.944-.493a1.917,1.917,0,0,1,.781-.274c.245,0,.369.082.369.246a.73.73,0,0,1-.192.4c-.036.046-.141.192-.314.438-.192.265-.311.425-.356.48-.065.091-.125.177-.186.259s-.148.2-.266.356a4.325,4.325,0,0,0-.794,2.272.344.344,0,0,0,.124.232.226.226,0,0,0,.137-.082.306.306,0,0,0,.137-.177,2.083,2.083,0,0,0,.082-.246,1.382,1.382,0,0,1,.068-.151.335.335,0,0,0,.042-.109,14.9,14.9,0,0,1,1.519-2.176,5.122,5.122,0,0,0,1.013-2.778q0-.78-.821-.78a10.906,10.906,0,0,0-3.353,1.477,34.333,34.333,0,0,1-5.05,2.354,11.858,11.858,0,0,1-3.669.644,4.472,4.472,0,0,1-3.037-1.068,3.031,3.031,0,0,1-.863-1.849,3.825,3.825,0,0,1,.137-.862,2.582,2.582,0,0,0,.11-.672q0-.259-.246-.259c-.1,0-.223.274-.369.821a8.021,8.021,0,0,0-.274,1.984,3.881,3.881,0,0,0,1.259,2.805A4.381,4.381,0,0,0,1065.244,662.149Z" transform="translate(23 12.094)" fill="#404040"/>
    <path id="Path_401" data-name="Path 401" d="M1066.241,662.04l1.232,1.122,1.067-1.287-1.2-1.068Z" transform="translate(25.232 14.393)" fill="#404040"/>
    <rect id="Rectangle_168" data-name="Rectangle 168" width="1.442" height="20.627" transform="translate(1025.037 655.821) rotate(-79.072)" fill="#404040"/>
    <rect id="Rectangle_169" data-name="Rectangle 169" width="1.442" height="20.627" transform="matrix(0.19, -0.982, 0.982, 0.19, 1025.037, 667.506)" fill="#404040"/>
    <rect id="Rectangle_170" data-name="Rectangle 170" width="1.442" height="20.627" transform="translate(1025.037 679.19) rotate(-79.072)" fill="#404040"/>
  </g>
</svg>