<svg xmlns="http://www.w3.org/2000/svg" width="102.448" height="72.128" viewBox="0 0 102.448 72.128"><script xmlns="" id="eppiocemhmnlbhjplcgkofciiegomcon"/><script xmlns=""/><script xmlns=""/>
  <g id="Group_585" data-name="Group 585" transform="translate(-1297.727 -708.121)">
    <path id="Path_394" data-name="Path 394" d="M1365.618,709.459l-3.5,1.543c-.046.018-4.883,2.086-16.9,2.086-1.859,0-3.931-.18-6.121-.373-5.092-.443-10.3-.863-14.222.82v3.76h.059v2.322a3.5,3.5,0,0,1,.586-.711c2.351-2.156,8.084-1.654,13.14-1.216,2.2.193,4.483.393,6.557.393a69.3,69.3,0,0,0,15.426-1.454V761.3h-25.809a30.411,30.411,0,0,0-9.9,1.375v3.583a25.884,25.884,0,0,1,9.9-1.627h25.809v6.26h-29.809a18.979,18.979,0,0,0-5.9,1v5.342a14.951,14.951,0,0,1,5.9-1.347h34.8v-62.61Z" transform="translate(34.537 1.702)" fill="#404040"/>
    <rect id="Rectangle_161" data-name="Rectangle 161" width="20.692" height="1.665" transform="translate(1367.91 729.607)" fill="#404040"/>
    <rect id="Rectangle_162" data-name="Rectangle 162" width="20.692" height="1.665" transform="translate(1367.91 737.339)" fill="#404040"/>
    <rect id="Rectangle_163" data-name="Rectangle 163" width="20.692" height="1.665" transform="translate(1367.91 745.069)" fill="#404040"/>
    <rect id="Rectangle_164" data-name="Rectangle 164" width="20.692" height="1.665" transform="translate(1367.91 752.799)" fill="#404040"/>
    <rect id="Rectangle_165" data-name="Rectangle 165" width="18.923" height="1.945" transform="translate(1315.628 734.39)" fill="#404040"/>
    <rect id="Rectangle_166" data-name="Rectangle 166" width="28.976" height="1.945" transform="translate(1315.628 746.572)" fill="#404040"/>
    <rect id="Rectangle_167" data-name="Rectangle 167" width="16.36" height="1.945" transform="translate(1328.243 758.756)" fill="#404040"/>
    <path id="Path_395" data-name="Path 395" d="M1349.585,708.121h-51.858V773.53h6.3v6.719h29.806v-3.89h-25.917V718.73h44.078v61.519h3.89V714.84h-6.3Zm-45.562,6.719v54.8h-2.406V712.011h44.078v2.829Z" transform="translate(0 0)" fill="#404040"/>
  </g>
</svg>