<svg xmlns="http://www.w3.org/2000/svg" viewBox="0 0 105.537 77.907"><g id="Group_584" data-name="Group 584" transform="translate(-831.771 -486.754)"><path id="Path_384" data-name="Path 384" d="M928.65,493.7v-3.737l-1.365-.513c-21.113-7.917-37.832,3.756-42.744,7.795-4.915-4.039-21.631-15.711-42.744-7.795l-1.365.513V493.7h-8.66v70.964l3.057-1.557c.231-.119,24.025-11.762,49.669-4.088,25.593-7.653,49.521,3.972,49.754,4.088l3.056,1.55V493.7Zm-92.673,64.29V497.9h4.454v52.72l2.487-.464a77.784,77.784,0,0,1,33.58,2.924C858.142,550.156,842.4,555.353,835.978,557.986Zm46.46-7.312a84.274,84.274,0,0,0-29.747-5.428,72.286,72.286,0,0,0-8.054.428V492.9c19.388-6.481,34.5,5.211,37.8,8.064Zm4.206-49.71c3.3-2.852,18.413-14.539,37.8-8.064v52.773a83.354,83.354,0,0,0-37.8,5ZM933.1,557.986c-6.423-2.634-22.158-7.828-40.509-4.907a78.156,78.156,0,0,1,33.57-2.922l2.487.458V497.9H933.1Z" transform="translate(0 0)" fill="currentColor"></path><path id="Path_385" data-name="Path 385" d="M892.784,506.206c-.011-2.341-.015-4.681,0-7.022l-.932-.027c-.02,2.347.015,4.7.034,7.042C892.186,506.2,892.485,506.2,892.784,506.206Z" transform="translate(24.145 4.985)" fill="currentColor"></path><path id="Path_386" data-name="Path 386" d="M892.359,504.055c-.048-1.084-.084-2.169-.125-3.254-.308.008-.617.017-.925.029.029.784.07,1.567.1,2.35a37.614,37.614,0,0,0-8.892,1.068c-.2-.768-.39-1.535-.571-2.306q-.429.114-.859.226c.28,1.077.606,2.143.9,3.217C885.337,504.271,888.856,504.166,892.359,504.055Z" transform="translate(19.821 5.646)" fill="currentColor"></path><path id="Path_387" data-name="Path 387" d="M884.946,504.68c.259-.02.52-.036.78-.055q-.032-.452-.066-.906-.4.027-.8.06C884.891,504.08,884.917,504.38,884.946,504.68Z" transform="translate(21.337 6.819)" fill="currentColor"></path><path id="Path_388" data-name="Path 388" d="M881.6,504.51l-.08-.7a24.145,24.145,0,0,0-6.944,1.74l.3.635A23.909,23.909,0,0,1,881.6,504.51Z" transform="translate(17.204 6.857)" fill="currentColor"></path><path id="Path_389" data-name="Path 389" d="M874.606,512.063l.221.666a66.8,66.8,0,0,1,24.389-2.521l.066-.7A67.683,67.683,0,0,0,874.606,512.063Z" transform="translate(17.215 9.048)" fill="currentColor"></path><path id="Path_390" data-name="Path 390" d="M874.606,520.414l.221.664a66.77,66.77,0,0,1,24.389-2.521l.066-.7A67.463,67.463,0,0,0,874.606,520.414Z" transform="translate(17.215 12.403)" fill="currentColor"></path><path id="Path_391" data-name="Path 391" d="M848.11,508.462l.066.7c12.989-1.2,20.8,3.684,20.873,3.735l.377-.592C869.349,512.253,861.354,507.238,848.11,508.462Z" transform="translate(6.566 8.647)" fill="currentColor"></path><path id="Path_392" data-name="Path 392" d="M848.176,500.892c12.973-1.2,20.8,3.686,20.873,3.736l.377-.59c-.077-.052-8.06-5.061-21.316-3.844Z" transform="translate(6.566 5.325)" fill="currentColor"></path><path id="Path_393" data-name="Path 393" d="M848.11,516.81l.066.7c12.989-1.2,20.8,3.684,20.873,3.735l.377-.59C869.349,520.6,861.354,515.586,848.11,516.81Z" transform="translate(6.566 12.002)" fill="currentColor"></path></g></svg>