<svg xmlns="http://www.w3.org/2000/svg" width="75.955" height="99.19" viewBox="0 0 75.955 99.19"><script xmlns="" id="eppiocemhmnlbhjplcgkofciiegomcon"/><script xmlns=""/><script xmlns=""/>
  <path id="Path_383" data-name="Path 383" d="M801.045,621.952a37.871,37.871,0,0,0-15.823-30.822,23.458,23.458,0,1,0-42.5-19.737A23,23,0,0,0,741,580.205a23.363,23.363,0,0,0,2.061,9.5,38.015,38.015,0,0,0-17.969,32.244c0,.424.017,10.1.017,10.1l0,1.684,10.074.07v13.531l27.42,8.609,27.421-8.609V634.2l11.02.076Zm-19.507-31.216a20.058,20.058,0,0,1-34.813-1.154l-.007-.015a19.961,19.961,0,0,1-2.326-9.361,19.715,19.715,0,0,1,1.095-6.466H783.42a19.99,19.99,0,0,1-1.881,17ZM764.46,560.155A20.05,20.05,0,0,1,781.9,570.343H747A19.959,19.959,0,0,1,764.46,560.155Zm2.484,56.484,14.8-7.278,1.431,2.18Zm-24.932-5.1,1.433-2.173,14.77,7.261Zm18.744,18.537v21.42l-21.871-6.867V614.431l21.871,6.867Zm3.7,21.42V621.3l21.872-6.867v30.194Zm33.2-20.639-7.624-.053V609.392l-5.112,1.6-.279-.326-2.294-3.494L762.6,616.886l-19.748-9.709-2.294,3.494-.275.321-5.095-1.6v21.023l-6.685-.048c-.005-2.789-.014-8.1-.014-8.415a34.624,34.624,0,0,1,16.131-29.238c.178.285.372.56.562.835.088.129.171.265.263.392q.451.624.937,1.215c.093.114.194.221.289.331.239.279.477.557.728.822.134.144.277.278.416.419.221.222.44.447.669.659.156.146.317.282.477.423.223.2.443.392.672.581.17.139.346.27.52.406.229.175.457.35.691.516.182.131.368.255.553.379.236.158.472.314.713.463.192.119.385.233.581.345.245.143.489.28.738.413.2.107.4.21.6.311q.379.188.766.362c.206.093.413.183.621.272.261.109.526.211.793.311.21.08.421.158.633.231.275.093.552.178.83.261.211.064.421.129.635.187.287.078.576.144.866.212.211.048.419.1.633.143.307.061.616.11.927.16.2.032.4.07.6.1.343.046.691.076,1.039.107.171.015.341.037.514.049.521.034,1.046.054,1.572.054a24.015,24.015,0,0,0,2.648-.156c.078-.008.158-.014.236-.024a23.1,23.1,0,0,0,2.45-.438c.112-.026.226-.049.338-.076a23.18,23.18,0,0,0,2.3-.7c.122-.046.245-.088.367-.136a23.1,23.1,0,0,0,2.173-.951l.345-.178a23.681,23.681,0,0,0,2.063-1.21c.093-.063.183-.129.275-.192a23.082,23.082,0,0,0,1.966-1.489c.054-.046.105-.1.16-.143a23.32,23.32,0,0,0,1.845-1.776l.046-.046a23.639,23.639,0,0,0,1.635-1.995c.041-.053.088-.1.127-.155a34.491,34.491,0,0,1,14.218,27.946Z" transform="translate(-725.09 -556.76)" fill="#404040"/>
</svg>