<svg xmlns="http://www.w3.org/2000/svg" width="113.456" height="96.076" viewBox="0 0 113.456 96.076"><script xmlns="" id="eppiocemhmnlbhjplcgkofciiegomcon"/><script xmlns=""/><script xmlns=""/>
  <g id="Group_587" data-name="Group 587" transform="translate(-1068.675 -673.039)">
    <g id="Group_588" data-name="Group 588" transform="translate(1084.01 673.039)">
      <path id="Path_408" data-name="Path 408" d="M1136.719,748.254q-6.427-1.691-12.852-3.385c-.218-.059-.54-.18-.591-.343-.336-1.065-.612-2.152-.936-3.332l1.7.822c.141-.171.264-.315.382-.463q3.868-4.875,7.738-9.751a3.736,3.736,0,0,1,2.407-1.5c1.016-.158,2.02-.417,3.017-.675a.981.981,0,0,0,.572-.453c.471-.938.894-1.9,1.334-2.854.72-1.561,1.45-3.117,2.154-4.685a2.486,2.486,0,0,0-.932-3.171,2.348,2.348,0,0,0-3.218.56c-1.205,1.385-2.434,2.748-3.655,4.119a3.891,3.891,0,0,1-.355.3,3.682,3.682,0,0,0-2.253-4.263c-.875,1.017-1.7,2.107-2.656,3.054a8.619,8.619,0,0,0-2.589,4.965,1.945,1.945,0,0,1-.3.916c-.719.865-1.495,1.681-2.258,2.526-.434-.218-.815-.441-1.222-.6a.7.7,0,0,1-.491-.776c.024-1.626.026-3.253-.006-4.877a1.205,1.205,0,0,0-.36-.757c-.5-.476-1.055-.892-1.719-1.44.687,0,1.179,0,1.673,0a3.506,3.506,0,0,0,3.7-3.709c-.007-1.336-.067-2.676-.18-4.009a8.833,8.833,0,0,0-1.472-4.527c-1.767-2.452-4.1-4.017-7.211-3.566a8.237,8.237,0,0,0-6.309,4.889,3.277,3.277,0,0,0-.176,1.788c.268,1.986.618,3.962.946,5.941a1.468,1.468,0,0,1-.929,1.613,8.067,8.067,0,0,0-4.437,3.946,13.366,13.366,0,0,0-1.395,6.318q0,8.752,0,17.5a6.372,6.372,0,0,0,4.232,6.088c.154.057.3.127.5.211l-.695.823c-1.5,1.765-3,3.526-4.484,5.3a.739.739,0,0,0-.176.584c.336.931.722,1.844,1.108,2.8,2.3-.567,4.533-1.069,6.739-1.68a22.193,22.193,0,0,1,6.22-.778c5.814.061,11.63.025,17.445.015a8.368,8.368,0,0,0,1.652-.142,6.836,6.836,0,0,0,.327-13.35Zm-5.87-25.167c-.233.962-.446,1.837-.644,2.659,1.418,0,2.809.011,4.2-.016.164,0,.351-.2.483-.348q1.872-2.1,3.728-4.209l.378-.427.068.079c-.963,2.077-1.922,4.156-2.9,6.228a.969.969,0,0,1-.405.343,1.437,1.437,0,0,1-.387.092c-1.8.409-3.682.649-4.88,2.358-.8-.587-1.507-1.1-2.2-1.635a.521.521,0,0,1-.117-.431A7.41,7.41,0,0,1,1130.849,723.087Zm-14.8-14.625c1.927-.465,3.312.622,4.684,1.983l-8.7,1.447-.072-.152A6.692,6.692,0,0,1,1116.051,708.461Zm-3.4,50.321a.476.476,0,0,1-.3.331c-2.036.5-4.077.986-6.225,1.5.141-.2.212-.32.3-.425,1.459-1.7,2.949-3.365,4.367-5.1a1.582,1.582,0,0,1,1.862-.607C1112.664,755.922,1112.671,757.352,1112.651,758.783Zm22.811.074a4.725,4.725,0,0,1-.855.061q-9.47,0-18.937,0c-.168,0-.336-.015-.536-.024v-4.468h11.057v-2.489h-.675c-5.031,0-10.063-.059-15.091.024a4.143,4.143,0,0,1-4.282-4.273c.056-5.7.016-11.4.018-17.1a12.336,12.336,0,0,1,.669-4.341c.763-2.05,2.022-3.583,4.318-4,.162-.03.3-.2.445-.312a.414.414,0,0,0,.093-.144c.429-.871,1.374-1.532,1.355-2.559a18.465,18.465,0,0,0-.511-2.931c-.115-.617-.228-1.235-.357-1.94l9.845-1.727c.1.917.231,1.8.28,2.686.052.935.031,1.874.027,2.812a1.109,1.109,0,0,1-1.235,1.248q-1.836.024-3.672,0a.765.765,0,0,0-.751.388c-.407.644-.854,1.263-1.315,1.937,1.1.891,2.168,1.789,3.276,2.628a1.173,1.173,0,0,1,.516,1.106c-.035.878-.01,1.758-.01,2.745l-5.248-2.674c-.364.719-.72,1.424-1.109,2.194l11.017,5.634,3.067-3.3,2.2,1.591c-1.931,2.466-3.836,4.9-5.752,7.342l-12.606-6.117c-.37.735-.723,1.441-1.1,2.182.237.126.432.237.634.335,2.9,1.416,5.8,2.835,8.708,4.234a.941.941,0,0,1,.567.708c.433,1.84,1,4.272,1.439,6.112a.731.731,0,0,0,.612.626q7.123,1.856,14.235,3.753c2.186.578,3.367,1.706,3.289,3.966A4.373,4.373,0,0,1,1135.463,758.856Z" transform="translate(-1078.896 -668.113)" fill="#404040"/>
      <path id="Path_409" data-name="Path 409" d="M1152.188,704.966h-5.153v-4.254c0-8.46-8.665-12.677-15.628-16.065-3.13-1.522-6.084-2.96-7.471-4.4l-1.488-1.549-1.488,1.549c-1.386,1.444-4.341,2.882-7.469,4.4-6.963,3.388-15.629,7.6-15.629,16.065v4.254h-5.151a6.279,6.279,0,0,0-6.272,6.273V767.85h4.124V711.24a2.151,2.151,0,0,1,2.148-2.149h9.275v-8.378c0-5.882,7.071-9.322,13.31-12.357a46.475,46.475,0,0,0,7.153-3.963,46.481,46.481,0,0,0,7.153,3.963c6.24,3.034,13.31,6.475,13.31,12.357v8.378h9.276a2.152,2.152,0,0,1,2.148,2.149V767.85h4.124V711.24A6.28,6.28,0,0,0,1152.188,704.966Z" transform="translate(-1081.38 -672.201)" fill="#404040"/>
      <path id="Path_410" data-name="Path 410" d="M1160.144,692.462h-3.176v-3.083h-2.749v3.083h-3.176v2.749h3.176v3.27h2.749v-3.27h3.176Z" transform="translate(-1071.814 -670.619)" fill="#404040"/>
      <path id="Path_411" data-name="Path 411" d="M1087.958,693.545v-3.269h3.177v-2.749h-3.177v-3.084h-2.749v3.084h-3.176v2.749h3.176v3.269Z" transform="translate(-1082.032 -671.35)" fill="#404040"/>
      <path id="Path_412" data-name="Path 412" d="M1142.039,683.078a2.5,2.5,0,1,0-2.5-2.5A2.5,2.5,0,0,0,1142.039,683.078Zm0-3.162a.663.663,0,1,1-.662.664A.664.664,0,0,1,1142.039,679.916Z" transform="translate(-1073.517 -672.292)" fill="#404040"/>
      <path id="Path_413" data-name="Path 413" d="M1104.373,677.831a2.4,2.4,0,1,0-2.395-2.395A2.4,2.4,0,0,0,1104.373,677.831Zm0-3.032a.637.637,0,1,1-.636.637A.637.637,0,0,1,1104.373,674.8Z" transform="translate(-1079.079 -673.039)" fill="#404040"/>
    </g>
    <g id="Group_591" data-name="Group 591" transform="translate(1068.675 736.187)">
      <g id="Group_589" data-name="Group 589" transform="translate(94.859)">
        <path id="Path_414" data-name="Path 414" d="M1160.6,728.042h0a8.919,8.919,0,0,1-3.5,2.623,9.313,9.313,0,0,0-5.8,8.614V760.59h3.444V739.541a6.032,6.032,0,0,1,5.269-6.087,5.86,5.86,0,0,1,6.441,5.825V760.59h3.444V739.279a9.314,9.314,0,0,0-5.8-8.614A8.9,8.9,0,0,1,1160.6,728.042Z" transform="translate(-1151.299 -728.042)" fill="#404040"/>
      </g>
      <g id="Group_590" data-name="Group 590">
        <path id="Path_415" data-name="Path 415" d="M1077.974,728.042h0a8.912,8.912,0,0,1-3.5,2.623,9.315,9.315,0,0,0-5.8,8.614V760.59h3.444V739.541a6.033,6.033,0,0,1,5.27-6.087,5.861,5.861,0,0,1,6.441,5.825V760.59h3.444V739.279a9.314,9.314,0,0,0-5.8-8.614A8.912,8.912,0,0,1,1077.974,728.042Z" transform="translate(-1068.675 -728.042)" fill="#404040"/>
      </g>
    </g>
  </g>
</svg>