<svg xmlns="http://www.w3.org/2000/svg" width="30" height="30" viewBox="0 0 30 30"><circle cx="15" cy="15" r="15" fill="#ebebeb"/><path d="M25.558,23.05C24,23.05,16,19.7,16,19.7v-.523c0-.649.713-1.175,1.593-1.175h15.93c.881,0,1.593.526,1.593,1.175l-.013.587S27.186,23.05,25.558,23.05Zm0,1.615c1.7,0,9.546-3.141,9.546-3.141l.013,7.049c0,.649-.713,1.175-1.593,1.175H17.593c-.879,0-1.593-.526-1.593-1.175l.013-7.049S24,24.665,25.558,24.665Z" transform="translate(-10.412 -8.874)" fill="#404040" fill-rule="evenodd"/></svg>