<svg xmlns="http://www.w3.org/2000/svg" width="30" height="30" viewBox="0 0 30 30"><g transform="translate(0)"><path d="M4.536,33.464,10.964,31.7A15.148,15.148,0,0,0,19,34,15,15,0,1,0,4,19a15.148,15.148,0,0,0,2.3,8.036Z" transform="translate(-4 -4)" fill="#ebebeb"/><path d="M36.283,29.5a5.2,5.2,0,0,1-3.54,2.194,14.824,14.824,0,0,1-6.424-1.024,15.315,15.315,0,0,1-6.882-4.534A6.008,6.008,0,0,1,18,23.118s-.262-1.706,1.966-3.071a1.391,1.391,0,0,1,.655-.146H21.6a1.012,1.012,0,0,1,.918.488l1.508,2.73a.687.687,0,0,1-.2.829l-.983.78a.6.6,0,0,0-.131.878,1.731,1.731,0,0,0,.393.39,11.517,11.517,0,0,0,4.523,2.633,5.527,5.527,0,0,0,.655.2,1.231,1.231,0,0,0,1.114-.293l.787-.878a1.119,1.119,0,0,1,.983-.341l3.933.439a1.082,1.082,0,0,1,.852.585l.262.731A.363.363,0,0,1,36.283,29.5Z" transform="translate(-12.166 -10.792)" fill="#404040"/></g></svg>